#!OML:ASF H:\Terrain\Patient Classification 1\Walking\steve\steve.ASF
:FULLY-SPECIFIED
:DEGREES
93
root 7.76518 15.4534 -14.3784 8.11583 -10.1661 -1.95022
lowerback -1.90609 5.35795 0.494879
upperback -3.58143 7.14442 -0.319734
thorax -2.51749 3.55563 -0.620051
lowerneck -13.5232 0.625512 -1.57348
upperneck 11.567 1.07865 0.528544
head 5.70031 0.495404 0.516963
rclavicle -2.31545e-014 -6.75868e-015
rhumerus -16.2539 1.02356 -81.3531
rradius 58.5845
rwrist -20.7622
rhand -20.3035 -36.7565
rfingers 7.12502
rthumb 6.04676 -66.6502
lclavicle -2.31545e-014 -6.75868e-015
lhumerus -68.8896 23.3648 44.3548
lradius 6.83244
lwrist -26.3009
lhand -9.80359 -6.0974
lfingers 7.12502
lthumb 16.1728 23.2479
rfemur 3.79586 7.29399 22.9429
rtibia 44.0902
rfoot 24.7392 0.92414
rtoes 7.07882
lfemur -43.6175 2.89569 -19.6849
ltibia 39.346
lfoot -6.52284 4.16901
ltoes -5.67386
94
root 7.7637 15.4737 -14.136 7.74462 -10.4297 -1.63374
lowerback -1.50315 5.43693 0.185331
upperback -3.50151 7.24739 -0.529711
thorax -2.66977 3.61065 -0.702887
lowerneck -13.3219 0.589199 -1.56402
upperneck 11.2715 1.02401 0.524165
head 5.57429 0.470411 0.507034
rclavicle -5.56921e-014 -9.93923e-016
rhumerus -17.4432 0.562147 -81.7083
rradius 59.0687
rwrist -20.8843
rhand -20.394 -36.5781
rfingers 7.12502
rthumb 5.95943 -66.4743
lclavicle -5.56921e-014 -9.93923e-016
lhumerus -68.0006 23.8615 44.3393
lradius 6.66217
lwrist -26.5122
lhand -10.5552 -5.16712
lfingers 7.12502
lthumb 15.4489 24.2355
rfemur 2.34043 7.72488 22.6597
rtibia 47.5709
rfoot 25.9707 -2.07439
rtoes 7.21325
lfemur -42.7085 3.00343 -20.1406
ltibia 40.1614
lfoot -7.51936 3.57706
ltoes -2.19446
95
root 7.76367 15.4937 -13.8918 7.41308 -10.8481 -1.60583
lowerback -1.14688 5.54583 0.117917
upperback -3.38101 7.39199 -0.578778
thorax -2.74497 3.68304 -0.747568
lowerneck -13.1137 0.623893 -1.59297
upperneck 10.8845 1.06989 0.535976
head 5.41729 0.494402 0.516613
rclavicle -1.12522e-013 2.98177e-015
rhumerus -18.5513 0.299273 -81.9834
rradius 59.2813
rwrist -20.8536
rhand -22.6244 -38.9495
rfingers 7.12502
rthumb 3.80581 -68.8953
lclavicle -1.12522e-013 2.98177e-015
lhumerus -67.3196 24.5404 44.3696
lradius 6.7694
lwrist -26.5716
lhand -10.906 -4.21405
lfingers 7.12502
lthumb 15.111 25.2143
rfemur 0.973687 8.23697 22.6685
rtibia 50.9563
rfoot 25.9645 -5.44716
rtoes 9.24791
lfemur -41.6722 3.42398 -20.381
ltibia 40.787
lfoot -8.23313 3.08733
ltoes -1.19006
96
root 7.76682 15.5189 -13.6553 7.10295 -11.06 -1.16612
lowerback -0.927491 5.51778 -0.300426
upperback -3.22208 7.34769 -0.743219
thorax -2.73464 3.66881 -0.701013
lowerneck -12.774 0.724405 -1.77331
upperneck 10.3075 1.18959 0.852057
head 5.17566 0.570984 0.650052
rclavicle -7.19041e-016 -4.37326e-015
rhumerus -19.6818 0.268505 -82.3589
rradius 59.3314
rwrist -20.8469
rhand -24.531 -40.6513
rfingers 7.12502
rthumb 1.96451 -70.622
lclavicle -7.19041e-016 -4.37326e-015
lhumerus -66.7157 25.3899 44.3185
lradius 7.07691
lwrist -26.5633
lhand -10.4925 -4.36766
lfingers 7.12502
lthumb 15.5093 25.0303
rfemur -0.51552 8.30623 22.182
rtibia 54.2042
rfoot 24.9134 -7.34443
rtoes 6.88021
lfemur -40.5901 3.75958 -21.1364
ltibia 41.2197
lfoot -8.96448 2.69222
ltoes -2.46696
97
root 7.77261 15.5459 -13.4292 6.81764 -11.103 -0.625153
lowerback -0.61313 5.4688 -0.761758
upperback -3.20791 7.27191 -0.897751
thorax -2.93387 3.63908 -0.640524
lowerneck -12.9107 0.658026 -1.47606
upperneck 10.6939 1.13576 0.194018
head 5.32601 0.507672 0.394089
rclavicle -4.67377e-015 9.93923e-015
rhumerus -21.0055 -0.15446 -82.7565
rradius 59.3345
rwrist -20.8486
rhand -25.545 -41.5687
rfingers 7.12502
rthumb 0.985198 -71.5461
lclavicle -4.67377e-015 9.93923e-015
lhumerus -66.0671 26.0603 44.3596
lradius 7.20441
lwrist -26.494
lhand -10.7197 -4.2028
lfingers 7.12502
lthumb 15.2905 25.212
rfemur -2.18359 8.14176 21.5967
rtibia 57.3374
rfoot 23.3822 -7.85781
rtoes 1.59787
lfemur -39.4805 3.85536 -21.923
ltibia 41.4023
lfoot -9.73959 2.36229
ltoes -2.84896
98
root 7.77897 15.5741 -13.2013 6.53192 -11.1989 -0.229418
lowerback -0.305706 5.38571 -1.08165
upperback -3.16469 7.14975 -1.02505
thorax -3.08473 3.58343 -0.624057
lowerneck -12.8756 0.706189 -1.5869
upperneck 10.8619 1.20639 0.307558
head 5.3707 0.544768 0.454006
rclavicle 1.09691e-013 1.13307e-014
rhumerus -22.1339 -0.754782 -83.3612
rradius 59.2046
rwrist -20.5948
rhand -24.8976 -41.4656
rfingers 7.12502
rthumb 1.61043 -71.4393
lclavicle 1.09691e-013 1.13307e-014
lhumerus -65.5698 26.7864 44.2176
lradius 7.55658
lwrist -26.882
lhand -11.8472 -3.22297
lfingers 7.12502
lthumb 14.2043 26.2714
rfemur -3.92203 8.10243 21.1942
rtibia 60.3322
rfoot 21.1597 -7.94667
rtoes -1.01967
lfemur -38.2682 3.94647 -22.5053
ltibia 41.3497
lfoot -10.6399 2.04722
ltoes -1.33337
99
root 7.78108 15.598 -12.9745 6.17598 -11.3678 0.510143
lowerback -0.13675 5.30674 -1.75861
upperback -2.96951 7.02511 -1.308
thorax -3.0241 3.5333 -0.546797
lowerneck -13.2329 0.823361 -1.30777
upperneck 10.8781 1.32331 0.265553
head 5.43618 0.610102 0.407307
rclavicle 1.94219e-014 1.13307e-014
rhumerus -23.0268 -1.45778 -84.0225
rradius 58.9677
rwrist -19.9306
rhand -23.9825 -41.4261
rfingers 7.12502
rthumb 2.49426 -71.3913
lclavicle 1.94219e-014 1.13307e-014
lhumerus -64.9989 27.644 44.0532
lradius 8.29902
lwrist -27.8315
lhand -12.7383 -2.68989
lfingers 7.12502
lthumb 13.3455 26.8627
rfemur -5.69787 8.10049 20.4333
rtibia 63.1549
rfoot 18.1304 -7.37743
rtoes -2.86809
lfemur -36.8586 4.18597 -23.4941
ltibia 41.1246
lfoot -11.6568 1.44897
ltoes 2.11854
100
root 7.77969 15.6285 -12.7522 5.97059 -11.5288 0.839769
lowerback -0.0451276 5.26333 -2.01871
upperback -2.7773 6.96009 -1.44678
thorax -2.89034 3.50397 -0.541833
lowerneck -13.203 0.955616 -1.5331
upperneck 10.5047 1.50387 0.549017
head 5.3085 0.711634 0.545662
rclavicle -1.22346e-014 1.64991e-014
rhumerus -23.8783 -1.81749 -84.5233
rradius 58.4594
rwrist -19.5853
rhand -24.4633 -42.3623
rfingers 7.12502
rthumb 2.02988 -72.3324
lclavicle -1.22346e-014 1.64991e-014
lhumerus -64.1552 28.7517 44.1506
lradius 8.90078
lwrist -28.3812
lhand -12.7275 -3.23834
lfingers 7.12502
lthumb 13.3559 26.3136
rfemur -7.56885 8.09692 20.1388
rtibia 65.6508
rfoot 14.8678 -6.75623
rtoes -2.59838
lfemur -35.5197 4.38173 -24.0136
ltibia 40.7911
lfoot -12.393 1.19588
ltoes 2.55664
101
root 7.78262 15.6713 -12.5279 5.96882 -11.426 0.67843
lowerback 0.0180301 5.0461 -1.81523
upperback -2.73582 6.67521 -1.33153
thorax -2.87024 3.35825 -0.530392
lowerneck -12.9944 1.08142 -1.95087
upperneck 10.393 1.71359 0.804198
head 5.2306 0.816163 0.708133
rclavicle 3.73777e-014 5.76476e-015
rhumerus -24.665 -1.26827 -85.0145
rradius 57.4151
rwrist -20.0168
rhand -23.8575 -41.9407
rfingers 7.12502
rthumb 2.61499 -71.9045
lclavicle 3.73777e-014 5.76476e-015
lhumerus -63.3799 30.1355 44.1601
lradius 9.05003
lwrist -28.664
lhand -12.8209 -3.51537
lfingers 7.12502
lthumb 13.2658 26.0425
rfemur -9.52722 7.82069 20.3748
rtibia 67.7605
rfoot 11.8709 -5.67551
rtoes -3.38785
lfemur -34.3343 4.26773 -23.9897
ltibia 40.3554
lfoot -12.9294 1.39806
ltoes -0.873443
102
root 7.78656 15.7154 -12.305 5.90345 -11.063 0.872112
lowerback 0.115371 4.73457 -1.9839
upperback -2.78761 6.25352 -1.2984
thorax -2.99707 3.15245 -0.405116
lowerneck -12.4098 1.14339 -2.17688
upperneck 10.235 1.81088 0.913994
head 5.07974 0.863323 0.780917
rclavicle 5.15598e-016 2.28602e-014
rhumerus -25.6349 -0.803438 -85.5229
rradius 56.3803
rwrist -20.5402
rhand -21.9304 -39.8805
rfingers 7.12502
rthumb 4.47598 -69.8132
lclavicle 5.15598e-016 2.28602e-014
lhumerus -62.5511 31.3461 44.1073
lradius 8.92856
lwrist -29.4527
lhand -13.5524 -3.5156
lfingers 7.12502
lthumb 12.5606 26.0868
rfemur -11.4724 7.22585 20.2341
rtibia 69.5785
rfoot 9.31872 -4.4091
rtoes -7.25514
lfemur -33.0946 4.01015 -24.3623
ltibia 39.8238
lfoot -13.4543 1.33701
ltoes -2.77725
103
root 7.78297 15.7626 -12.088 5.83992 -10.7563 1.14725
lowerback 0.16713 4.52768 -2.28294
upperback -2.76607 5.96999 -1.31864
thorax -3.02969 3.01775 -0.257293
lowerneck -12.2418 1.14859 -2.23036
upperneck 10.2302 1.82327 0.915484
head 5.04971 0.867332 0.789561
rclavicle 1.25126e-013 -2.24627e-014
rhumerus -26.6597 -0.831399 -85.9086
rradius 55.5886
rwrist -20.7266
rhand -21.378 -39.2077
rfingers 7.12502
rthumb 5.00941 -69.1285
lclavicle 1.25126e-013 -2.24627e-014
lhumerus -61.466 32.4496 44.3174
lradius 8.9769
lwrist -30.3988
lhand -13.775 -4.14365
lfingers 7.12502
lthumb 12.346 25.4718
rfemur -13.5185 6.81205 20.0511
rtibia 71.1941
rfoot 7.25366 -3.97133
rtoes -8.78591
lfemur -31.8665 3.86614 -24.7804
ltibia 39.2174
lfoot -13.9503 1.06859
ltoes -1.55807
104
root 7.78107 15.814 -11.867 5.83132 -10.5073 1.3169
lowerback 0.121595 4.40565 -2.43424
upperback -2.74617 5.80747 -1.26662
thorax -3.00173 2.94082 -0.111422
lowerneck -12.3561 1.14679 -2.48417
upperneck 10.5346 1.86806 0.928858
head 5.16039 0.877744 0.841508
rclavicle -7.0348e-014 -1.76918e-014
rhumerus -27.7234 -0.999765 -86.0551
rradius 54.6401
rwrist -20.7111
rhand -21.6186 -40.0532
rfingers 7.12502
rthumb 4.77707 -69.9793
lclavicle -7.0348e-014 -1.76918e-014
lhumerus -60.3526 33.5477 44.8201
lradius 9.17628
lwrist -31.2926
lhand -14.1407 -4.98855
lfingers 7.12502
lthumb 11.9934 24.6478
rfemur -15.5203 6.55856 19.9837
rtibia 72.532
rfoot 5.30764 -3.79688
rtoes -9.0363
lfemur -30.6292 3.6695 -25.0737
ltibia 38.5202
lfoot -14.474 1.00074
ltoes -0.773975
105
root 7.78502 15.8566 -11.6401 5.82359 -10.1791 1.4607
lowerback 0.0566637 4.27933 -2.38915
upperback -2.83407 5.6395 -1.28816
thorax -3.04618 2.85649 -0.151651
lowerneck -11.9651 1.17077 -2.63733
upperneck 10.6499 1.91221 0.968182
head 5.12863 0.894789 0.879511
rclavicle -2.29814e-014 1.55052e-014
rhumerus -29.2398 -1.23094 -86.2409
rradius 53.7486
rwrist -20.7535
rhand -21.2657 -40.1922
rfingers 7.12502
rthumb 5.11784 -70.1104
lclavicle -2.29814e-014 1.55052e-014
lhumerus -59.1401 34.5129 45.3093
lradius 9.17096
lwrist -32.3005
lhand -15.583 -5.97524
lfingers 7.12502
lthumb 10.6024 23.7373
rfemur -17.2747 6.17429 19.9331
rtibia 73.5232
rfoot 3.21346 -3.50269
rtoes -9.9742
lfemur -29.3258 3.12566 -25.3294
ltibia 37.8057
lfoot -15.1435 1.30926
ltoes -2.30138
